<svg width="32" height="32" viewBox="0 0 32 32" fill="none" xmlns="http://www.w3.org/2000/svg" role="img" aria-label="Phoenix Trip AI Logo">
<title>Phoenix Trip AI Logo</title>
<desc>A logo featuring a stylized phoenix bird in white on an orange background</desc>
<rect width="32" height="32" rx="2" fill="#FD4F00"/>
<path d="M13.0127 19.1588C12.9069 19.1402 12.8655 19.1332 12.8241 19.1257C11.4846 18.8827 10.6378 18.0922 10.2365 16.8494C9.98642 16.0747 10.4409 15.5042 11.274 15.4666C11.9561 15.4358 12.423 15.8182 12.8359 16.2632C13.3681 16.8368 13.856 17.4494 14.3787 18.0316C15.1313 18.8698 16.0181 19.4096 17.2314 19.243C18.3194 19.0936 19.2675 18.6678 20.0926 17.9669C20.2166 17.8616 20.3525 17.7698 20.4832 17.6716L20.4009 17.577C19.7083 17.7868 19.002 17.8573 18.2803 17.8219C17.1883 17.7683 16.1478 17.5459 15.2168 16.9612C14.3672 16.4276 13.7406 15.7125 13.4428 14.7575C13.2022 13.9859 13.6946 13.4462 14.5144 13.5577C14.8385 13.6018 15.1113 13.7442 15.3561 13.9461C15.5556 14.1103 15.7468 14.2844 15.9502 14.4437C16.907 15.1935 18.2439 15.2352 19.4585 14.4211C17.4618 14.4122 16.1033 13.341 14.9102 11.9834C14.4432 11.4521 13.9873 10.9113 13.5107 10.3883C12.5885 9.3764 11.5654 8.48488 10.1644 8.18077C8.37495 7.79226 6.64731 8.04618 4.98907 8.78691C4.65841 8.93458 4.34088 9.1063 4 9.38298C4.16875 9.38298 4.26081 9.385 4.35269 9.3827C5.18875 9.36168 5.81529 9.72404 6.26715 10.3911C6.59603 10.8765 6.751 11.4255 6.86913 11.9903C7.04445 12.8285 6.9537 13.6831 7.05494 14.5251C7.31519 16.6899 8.44957 18.2005 10.5618 18.9741C11.3363 19.2578 12.1308 19.3523 13.0127 19.1588ZM7.67464 9.28388C7.34089 9.36598 7.07417 9.23459 6.79928 8.96329C7.27001 8.8489 7.68513 8.80455 8.1312 8.78745C8.09473 9.06992 7.92391 9.22261 7.67464 9.28388ZM18.6113 21.9251C18.5823 21.7167 18.3998 21.6249 18.2562 21.516C17.6213 21.034 16.8788 20.8634 16.0916 20.8492C15.6218 20.8408 15.1569 20.8066 14.7139 20.646C14.5108 20.5724 14.2836 20.4777 14.2888 20.2219C14.294 19.9622 14.5256 19.8887 14.7365 19.8273C14.9091 19.777 15.0872 19.7449 15.2837 19.7001C14.7846 19.3881 14.297 19.3449 13.6473 19.5997C12.6245 20.0007 11.6163 19.9532 10.5967 19.5941C10.0211 19.3915 9.51026 19.0734 8.97842 18.7917C8.96529 18.7525 8.94073 18.752 8.91016 18.7738L8.95188 18.8095C9.39298 19.5146 9.98885 20.0819 10.662 20.5666C11.9584 21.5002 13.3744 22.0569 15.0312 21.8099C15.5668 21.7299 16.1051 21.6685 16.6452 21.6259C17.3219 21.5724 17.9666 21.7581 18.6113 21.9251ZM15.4877 11.8104C15.4519 11.7851 15.4175 11.7216 15.3443 11.7873C15.9404 12.5737 16.7062 13.1534 17.6282 13.5183C19.1163 14.1073 20.6267 14.208 22.1714 13.6883C23.3706 13.2849 24.233 13.6791 24.6809 14.8147C24.7457 13.4965 23.9504 12.5361 22.684 12.3478C21.9716 12.2419 21.3137 12.4724 20.6462 12.6613C18.789 13.1865 17.0631 12.9272 15.4877 11.8104ZM24.7443 16.9518C24.9864 16.9716 25.2282 16.993 25.4703 17.0137C24.9235 16.5452 24.257 16.5081 23.583 16.5455C22.5563 16.6024 21.8168 17.1798 21.1424 17.8697C20.5483 18.4778 20.0117 19.1599 19.125 19.4042C19.1398 19.4302 19.1437 19.4432 19.1478 19.4432C19.267 19.4449 19.3866 19.4504 19.5055 19.4451C20.7932 19.3882 22.0063 19.1233 22.9712 18.2119C23.2751 17.9249 23.547 17.606 23.8404 17.3081C24.085 17.0597 24.3818 16.922 24.7443 16.9518ZM21.753 15.3953C20.7921 15.4773 19.9573 15.865 19.1733 16.3762C18.5698 16.7696 17.9244 16.9558 17.1992 16.8327C17.0716 16.811 16.9431 16.7949 16.815 16.7761L16.8106 16.8284C16.8567 16.8516 16.9012 16.8786 16.9493 16.8972C17.0701 16.9438 17.1892 17 17.3146 17.029C18.7102 17.3526 20.0461 17.1869 21.2506 16.428C22.0099 15.9497 22.7957 15.8591 23.6475 15.9826C23.7336 15.9952 23.8193 16.0104 23.9057 16.0183C23.9858 16.0257 24.0694 16.1033 24.1775 16.0193C23.4328 15.4946 22.6307 15.3205 21.753 15.3953ZM18.3186 12.214C18.8227 12.231 19.3245 12.1666 19.8517 11.8611C19.6974 11.8745 19.6319 11.8742 19.5689 11.8864C18.8426 12.0276 18.1906 11.8731 17.6098 11.4252C17.3967 11.2608 17.1801 11.1008 16.9643 10.9398C16.1087 10.3016 15.1276 10.088 14.0544 10.1062C14.0718 10.1576 14.0728 10.1929 14.0915 10.2112C15.2591 11.3631 16.6105 12.1565 18.3186 12.214ZM26.7694 18.1243C26.0467 17.4252 25.0769 17.3352 24.1797 17.9452C24.7736 17.9713 25.2196 18.1561 25.581 18.5213C25.7091 18.6505 25.8418 18.7773 25.9848 18.89C26.5316 19.3201 27.4585 19.3407 28 18.9417C27.3639 18.6996 27.3639 18.6996 26.7694 18.1243ZM19.5725 23.4774C18.9374 22.3245 17.8701 22.0643 16.6371 22.1417C17.0016 22.2403 17.342 22.3919 17.6544 22.6047C17.9413 22.8002 18.1828 23.042 18.4209 23.2898C18.8925 23.7806 19.6286 24.0821 20.1164 23.9803C19.8925 23.8425 19.6934 23.697 19.5725 23.4774ZM25.4816 17.0374C25.4818 17.0301 25.4821 17.0227 25.4824 17.015L25.4703 17.0137C25.4727 17.0159 25.4752 17.0176 25.4776 17.0198L25.4816 17.0374ZM18.6466 21.9523L18.6216 21.9385C18.6225 21.9435 18.6242 21.9485 18.6268 21.9531C18.6285 21.9557 18.6398 21.9527 18.6466 21.9523ZM18.6216 21.9385C18.6209 21.9347 18.6201 21.9309 18.6191 21.9271L18.6113 21.9251C18.6118 21.9283 18.6129 21.9309 18.6133 21.9341L18.6216 21.9385Z" fill="white"/>
</svg>
